<svg width="207" height="24" viewBox="0 0 207 24" xmlns="http://www.w3.org/2000/svg"><g fill="#333" fill-rule="evenodd"><path d="M58.979 4.928c2.215 0 3.854.711 5.36 2.133.2.184.2.46.022.643l-1.728 1.858a.378.378 0 0 1-.553 0 4.435 4.435 0 0 0-2.99-1.17c-2.503 0-4.342 2.157-4.342 4.727 0 2.547 1.86 4.659 4.364 4.659 1.04 0 2.17-.39 2.967-1.102.155-.138.443-.138.576.023l1.728 1.904c.155.161.133.46-.023.62-1.505 1.515-3.41 2.226-5.382 2.226-4.43 0-7.995-3.649-7.995-8.237 0-4.59 3.567-8.284 7.996-8.284M73.774 17.778c2.436 0 4.43-2.066 4.43-4.567 0-2.524-1.994-4.612-4.43-4.612-2.414 0-4.408 2.088-4.408 4.612 0 2.501 1.994 4.567 4.408 4.567m0-12.85c4.43 0 7.973 3.694 7.973 8.283 0 4.59-3.544 8.238-7.973 8.238-4.43 0-7.951-3.649-7.951-8.238 0-4.589 3.522-8.283 7.95-8.283M90.008 17.823c2.503 0 4.319-2.042 4.319-4.658 0-2.593-1.816-4.635-4.319-4.635h-2.126v9.293h2.126zm-5.581-12.23c0-.23.177-.436.399-.436h5.403c4.275 0 7.775 3.602 7.775 8.008 0 4.452-3.5 8.054-7.775 8.054h-5.403c-.222 0-.4-.207-.4-.436V5.593zM100.705 5.593c0-.23.177-.436.421-.436h9.17c.243 0 .42.206.42.436v2.501c0 .23-.177.436-.42.436h-6.136v2.845h5.05c.221 0 .42.207.42.436v2.501c0 .253-.199.437-.42.437h-5.05v3.097h6.135c.244 0 .421.206.421.436v2.501c0 .23-.177.436-.42.436h-9.17a.428.428 0 0 1-.42-.436V5.593zM125.444 4.928c2.215 0 3.854.711 5.36 2.133.2.184.2.46.022.643l-1.728 1.858a.378.378 0 0 1-.553 0 4.435 4.435 0 0 0-2.99-1.17c-2.503 0-4.341 2.157-4.341 4.727 0 2.547 1.86 4.659 4.363 4.659 1.04 0 2.17-.39 2.967-1.102.156-.138.444-.138.576.023l1.728 1.904c.155.161.133.46-.022.62-1.506 1.515-3.411 2.226-5.382 2.226-4.43 0-7.995-3.649-7.995-8.237 0-4.59 3.566-8.284 7.995-8.284M133.484 5.593c0-.23.177-.436.42-.436h2.636c.221 0 .42.206.42.436v12.253h5.272c.244 0 .421.207.421.436v2.502c0 .229-.177.435-.421.435h-8.327a.428.428 0 0 1-.421-.435V5.593zM144.8 5.593c0-.23.2-.436.422-.436h2.658c.221 0 .42.206.42.436v15.19c0 .23-.199.436-.42.436h-2.658c-.222 0-.421-.207-.421-.436V5.593zM153.637 5.295a.429.429 0 0 1 .4-.367h.354c.11 0 .31.091.376.229l5.138 9.912h.045l5.138-9.912c.066-.138.266-.23.376-.23h.355a.43.43 0 0 1 .399.368l2.502 15.42c.045.298-.155.504-.42.504h-2.614a.455.455 0 0 1-.42-.367l-.998-7.09h-.044l-3.72 7.434c-.067.138-.267.253-.377.253h-.4c-.132 0-.31-.115-.376-.253l-3.743-7.434h-.044l-.974 7.09a.436.436 0 0 1-.421.367h-2.614c-.265 0-.465-.206-.42-.504l2.502-15.42zM178.664 15.712l-1.683-3.786h-.022l-1.661 3.786h3.366zm-9.102 4.91l6.932-15.442a.449.449 0 0 1 .377-.252h.221c.155 0 .31.114.377.252l6.932 15.443c.133.298-.044.596-.377.596h-2.458c-.399 0-.576-.137-.775-.573l-.798-1.813h-6.024l-.797 1.836c-.11.275-.355.55-.798.55h-2.436c-.332 0-.51-.298-.376-.596zM187.412 8.53h-3.167a.429.429 0 0 1-.42-.436V5.593c0-.23.176-.436.42-.436h9.834c.244 0 .421.206.421.436v2.501c0 .23-.177.436-.421.436h-3.167v12.254c0 .229-.2.435-.421.435h-2.658c-.221 0-.421-.206-.421-.435V8.53zM196.715 5.593c0-.23.177-.436.42-.436h9.17c.244 0 .421.206.421.436v2.501c0 .23-.177.436-.42.436h-6.136v2.845h5.05c.221 0 .42.207.42.436v2.501c0 .253-.199.437-.42.437h-5.05v3.097h6.135c.244 0 .421.206.421.436v2.501c0 .23-.177.436-.42.436h-9.17a.428.428 0 0 1-.422-.436V5.593zM27.725 0l-7.873 8.157 4.683 4.851 3.19-3.305 9.054 9.38 4.682-4.852zM18.4 9.663l-4.663-4.83-11.891 12.32L0 19.064l4.683 4.85 1.845-1.91 6.028-6.245 1.18-1.223 4.663 4.83 4.391 4.55 4.683-4.852-4.392-4.55z"/></g></svg>
